<svg width="1000" height="100" viewBox="0 0 1158 100" fill="none" xmlns="http://www.w3.org/2000/svg">
<mask id="path-1-outside-1_7_41" maskUnits="userSpaceOnUse" x="-2" y="-2" width="1163" height="104" fill="black">
<rect fill="white" x="-2" y="-2" width="1163" height="104"/>
<path d="M35.784 56.85C39.0833 56.85 42.0123 56.0757 44.571 54.527C47.197 52.9783 49.217 50.7227 50.631 47.76H69.619C67.801 54.5607 64.4007 60.1157 59.418 64.425C54.5027 68.667 48.51 71.2593 41.44 72.202V76.141C44.9413 76.141 48.005 77.0837 50.631 78.969C53.257 80.9217 54.57 83.817 54.57 87.655C54.57 91.493 53.1897 94.3883 50.429 96.341C47.6683 98.361 44.369 99.371 40.531 99.371H24.977V89.877H38.208C39.5547 89.877 40.5647 89.675 41.238 89.271C41.9113 88.867 42.248 88.1937 42.248 87.251C42.248 86.3083 41.9113 85.635 41.238 85.231C40.5647 84.8943 39.5547 84.726 38.208 84.726H31.037V72.202C24.977 71.5287 19.624 69.6097 14.978 66.445C10.332 63.213 6.72967 59.0047 4.171 53.82C1.61233 48.6353 0.333 42.8447 0.333 36.448C0.333 29.4453 1.848 23.217 4.878 17.763C7.908 12.2417 12.1163 7.966 17.503 4.936C22.957 1.83866 29.118 0.289996 35.986 0.289996C44.4027 0.289996 51.6073 2.512 57.6 6.95599C63.5927 11.4 67.599 17.46 69.619 25.136H50.631C49.217 22.1733 47.197 19.9177 44.571 18.369C42.0123 16.8203 39.0833 16.046 35.784 16.046C30.4647 16.046 26.1553 17.8977 22.856 21.601C19.5567 25.3043 17.907 30.2533 17.907 36.448C17.907 42.6427 19.5567 47.5917 22.856 51.295C26.1553 54.9983 30.4647 56.85 35.784 56.85ZM113.728 72.707C107.062 72.707 100.934 71.1583 95.3456 68.061C89.8243 64.9637 85.4139 60.6543 82.1146 55.133C78.8826 49.5443 77.2666 43.2823 77.2666 36.347C77.2666 29.4117 78.8826 23.1833 82.1146 17.662C85.4139 12.1407 89.8243 7.83133 95.3456 4.734C100.934 1.63667 107.062 0.0879987 113.728 0.0879987C120.394 0.0879987 126.487 1.63667 132.009 4.734C137.597 7.83133 141.974 12.1407 145.139 17.662C148.371 23.1833 149.987 29.4117 149.987 36.347C149.987 43.2823 148.371 49.5443 145.139 55.133C141.907 60.6543 137.53 64.9637 132.009 68.061C126.487 71.1583 120.394 72.707 113.728 72.707ZM113.728 56.951C119.384 56.951 123.895 55.0657 127.262 51.295C130.696 47.5243 132.413 42.5417 132.413 36.347C132.413 30.085 130.696 25.1023 127.262 21.399C123.895 17.6283 119.384 15.743 113.728 15.743C108.004 15.743 103.426 17.5947 99.9916 21.298C96.6249 25.0013 94.9416 30.0177 94.9416 36.347C94.9416 42.609 96.6249 47.6253 99.9916 51.396C103.426 55.0993 108.004 56.951 113.728 56.951ZM200.702 72L176.866 40.69V72H159.595V1.098H176.866V32.206L200.5 1.098H220.801L193.329 35.842L221.811 72H200.702ZM312.224 1.098L287.681 48.568V72H270.41V48.568L245.867 1.098H265.461L279.197 30.792L292.832 1.098H312.224ZM363.32 59.476H336.858L332.616 72H314.537L340.191 1.098H360.189L385.843 72H367.562L363.32 59.476ZM358.876 46.144L350.089 20.187L341.403 46.144H358.876ZM434.758 72L410.922 40.69V72H393.651V1.098H410.922V32.206L434.556 1.098H454.857L427.385 35.842L455.867 72H434.758ZM481.346 1.098V72H464.075V1.098H481.346ZM557.29 72H540.019L511.133 28.267V72H493.862V1.098H511.133L540.019 45.033V1.098H557.29V72ZM596.372 1.098C603.846 1.098 610.377 2.57933 615.966 5.54199C621.555 8.50466 625.864 12.6793 628.894 18.066C631.991 23.3853 633.54 29.5463 633.54 36.549C633.54 43.4843 631.991 49.6453 628.894 55.032C625.864 60.4187 621.521 64.5933 615.865 67.556C610.276 70.5187 603.779 72 596.372 72H569.809V1.098H596.372ZM595.261 57.052C601.792 57.052 606.876 55.2677 610.512 51.699C614.148 48.1303 615.966 43.0803 615.966 36.549C615.966 30.0177 614.148 24.934 610.512 21.298C606.876 17.662 601.792 15.844 595.261 15.844H587.08V57.052H595.261ZM687.329 59.476H660.867L656.625 72H638.546L664.2 1.098H684.198L709.852 72H691.571L687.329 59.476ZM682.885 46.144L674.098 20.187L665.412 46.144H682.885ZM781.988 35.64C786.095 36.5153 789.394 38.569 791.886 41.801C794.377 44.9657 795.623 48.6017 795.623 52.709C795.623 58.6343 793.535 63.3477 789.361 66.849C785.253 70.283 779.496 72 772.09 72H739.063V1.098H770.979C778.183 1.098 783.806 2.74766 787.846 6.04699C791.953 9.34633 794.007 13.824 794.007 19.48C794.007 23.6547 792.896 27.1223 790.674 29.883C788.519 32.6437 785.624 34.5627 781.988 35.64ZM756.334 29.782H767.646C770.474 29.782 772.628 29.176 774.11 27.964C775.658 26.6847 776.433 24.833 776.433 22.409C776.433 19.985 775.658 18.1333 774.11 16.854C772.628 15.5747 770.474 14.935 767.646 14.935H756.334V29.782ZM769.06 58.062C771.955 58.062 774.177 57.4223 775.726 56.143C777.342 54.7963 778.15 52.8773 778.15 50.386C778.15 47.8947 777.308 45.942 775.625 44.528C774.009 43.114 771.753 42.407 768.858 42.407H756.334V58.062H769.06ZM822.608 1.098V43.518C822.608 47.76 823.652 51.0257 825.739 53.315C827.826 55.6043 830.89 56.749 834.93 56.749C838.97 56.749 842.067 55.6043 844.222 53.315C846.377 51.0257 847.454 47.76 847.454 43.518V1.098H864.725V43.417C864.725 49.7463 863.378 55.0993 860.685 59.476C857.992 63.8527 854.356 67.152 849.777 69.374C845.266 71.596 840.216 72.707 834.627 72.707C829.038 72.707 824.022 71.6297 819.578 69.475C815.201 67.253 811.734 63.9537 809.175 59.577C806.616 55.133 805.337 49.7463 805.337 43.417V1.098H822.608ZM913.011 72L898.265 45.235H894.124V72H876.853V1.098H905.84C911.428 1.098 916.175 2.07433 920.081 4.027C924.053 5.97966 927.016 8.67299 928.969 12.107C930.921 15.4737 931.898 19.2443 931.898 23.419C931.898 28.1323 930.551 32.3407 927.858 36.044C925.232 39.7473 921.326 42.3733 916.142 43.922L932.504 72H913.011ZM894.124 33.014H904.83C907.994 33.014 910.351 32.2397 911.9 30.691C913.516 29.1423 914.324 26.954 914.324 24.126C914.324 21.4327 913.516 19.3117 911.9 17.763C910.351 16.2143 907.994 15.44 904.83 15.44H894.124V33.014ZM986.877 59.476H960.415L956.173 72H938.094L963.748 1.098H983.746L1009.4 72H991.119L986.877 59.476ZM982.433 46.144L973.646 20.187L964.96 46.144H982.433ZM1043.77 1.098C1051.24 1.098 1057.78 2.57933 1063.36 5.54199C1068.95 8.50466 1073.26 12.6793 1076.29 18.066C1079.39 23.3853 1080.94 29.5463 1080.94 36.549C1080.94 43.4843 1079.39 49.6453 1076.29 55.032C1073.26 60.4187 1068.92 64.5933 1063.26 67.556C1057.67 70.5187 1051.18 72 1043.77 72H1017.21V1.098H1043.77ZM1042.66 57.052C1049.19 57.052 1054.27 55.2677 1057.91 51.699C1061.55 48.1303 1063.36 43.0803 1063.36 36.549C1063.36 30.0177 1061.55 24.934 1057.91 21.298C1054.27 17.662 1049.19 15.844 1042.66 15.844H1034.48V57.052H1042.66ZM1134.73 59.476H1108.27L1104.02 72H1085.94L1111.6 1.098H1131.6L1157.25 72H1138.97L1134.73 59.476ZM1130.28 46.144L1121.5 20.187L1112.81 46.144H1130.28Z"/>
</mask>
<path d="M44.571 54.527L43.555 52.8043L43.5452 52.8101L43.5354 52.816L44.571 54.527ZM50.631 47.76V45.76H49.3694L48.826 46.8985L50.631 47.76ZM69.619 47.76L71.5512 48.2765L72.2239 45.76H69.619V47.76ZM59.418 64.425L60.7247 65.9391L60.7263 65.9377L59.418 64.425ZM41.44 72.202L41.1757 70.2195L39.44 70.451V72.202H41.44ZM41.44 76.141H39.44V78.141H41.44V76.141ZM50.631 78.969L51.8244 77.3641L51.811 77.3541L51.7974 77.3444L50.631 78.969ZM50.429 96.341L49.2741 94.7082L49.261 94.7175L49.248 94.7269L50.429 96.341ZM24.977 99.371H22.977V101.371H24.977V99.371ZM24.977 89.877V87.877H22.977V89.877H24.977ZM41.238 85.231L42.267 83.516L42.2011 83.4765L42.1324 83.4421L41.238 85.231ZM31.037 84.726H29.037V86.726H31.037V84.726ZM31.037 72.202H33.037V70.4119L31.2579 70.2142L31.037 72.202ZM14.978 66.445L13.8359 68.0868L13.8439 68.0924L13.8521 68.098L14.978 66.445ZM4.171 53.82L5.96449 52.9349L4.171 53.82ZM4.878 17.763L6.62634 18.7343L6.63133 18.7252L4.878 17.763ZM17.503 4.936L18.4835 6.67916L18.4907 6.67512L17.503 4.936ZM57.6 6.95599L58.7913 5.34952L57.6 6.95599ZM69.619 25.136V27.136H72.2134L71.5532 24.627L69.619 25.136ZM50.631 25.136L48.826 25.9975L49.3694 27.136H50.631V25.136ZM44.571 18.369L43.5354 20.08L43.5452 20.0859L43.555 20.0917L44.571 18.369ZM22.856 21.601L24.3493 22.9314L22.856 21.601ZM22.856 51.295L21.3627 52.6254L22.856 51.295ZM35.784 58.85C39.4096 58.85 42.704 57.9949 45.6066 56.238L43.5354 52.816C41.3207 54.1565 38.757 54.85 35.784 54.85V58.85ZM45.587 56.2497C48.5824 54.4832 50.8643 51.9144 52.436 48.6215L48.826 46.8985C47.5697 49.5309 45.8116 51.4735 43.555 52.8043L45.587 56.2497ZM50.631 49.76H69.619V45.76H50.631V49.76ZM67.6869 47.2435C65.9649 53.685 62.7682 58.8833 58.1097 62.9123L60.7263 65.9377C66.0332 61.348 69.6371 55.4363 71.5512 48.2765L67.6869 47.2435ZM58.1113 62.9109C53.5193 66.8739 47.8996 69.323 41.1757 70.2195L41.7043 74.1845C49.1204 73.1956 55.4861 70.4601 60.7247 65.9391L58.1113 62.9109ZM39.44 72.202V76.141H43.44V72.202H39.44ZM41.44 78.141C44.5595 78.141 47.2072 78.9729 49.4646 80.5937L51.7974 77.3444C48.8028 75.1944 45.3232 74.141 41.44 74.141V78.141ZM49.4376 80.5739C51.4643 82.0809 52.57 84.3255 52.57 87.655H56.57C56.57 83.3085 55.0498 79.7624 51.8244 77.3641L49.4376 80.5739ZM52.57 87.655C52.57 90.9452 51.4271 93.1853 49.2741 94.7082L51.5839 97.9738C54.9522 95.5914 56.57 92.0408 56.57 87.655H52.57ZM49.248 94.7269C46.8713 96.466 43.9985 97.371 40.531 97.371V101.371C44.7395 101.371 48.4653 100.256 51.61 97.9551L49.248 94.7269ZM40.531 97.371H24.977V101.371H40.531V97.371ZM26.977 99.371V89.877H22.977V99.371H26.977ZM24.977 91.877H38.208V87.877H24.977V91.877ZM38.208 91.877C39.6894 91.877 41.1329 91.6664 42.267 90.986L40.209 87.556C39.9964 87.6836 39.42 87.877 38.208 87.877V91.877ZM42.267 90.986C43.672 90.143 44.248 88.7311 44.248 87.251H40.248C40.248 87.3686 40.2374 87.4491 40.2269 87.4996C40.2166 87.5489 40.2067 87.5685 40.2066 87.5686C40.2064 87.569 40.2077 87.5664 40.2107 87.5621C40.2138 87.5577 40.2173 87.5534 40.2208 87.5496C40.2289 87.5409 40.2287 87.5442 40.209 87.556L42.267 90.986ZM44.248 87.251C44.248 85.7709 43.672 84.359 42.267 83.516L40.209 86.946C40.2287 86.9578 40.2289 86.9611 40.2208 86.9524C40.2173 86.9487 40.2138 86.9443 40.2107 86.9399C40.2077 86.9356 40.2064 86.933 40.2066 86.9334C40.2067 86.9335 40.2166 86.9531 40.2269 87.0024C40.2374 87.0529 40.248 87.1334 40.248 87.251H44.248ZM42.1324 83.4421C41.0412 82.8965 39.6568 82.726 38.208 82.726V86.726C39.4525 86.726 40.0882 86.8922 40.3436 87.0199L42.1324 83.4421ZM38.208 82.726H31.037V86.726H38.208V82.726ZM33.037 84.726V72.202H29.037V84.726H33.037ZM31.2579 70.2142C25.4942 69.5738 20.4576 67.7576 16.1039 64.792L13.8521 68.098C18.7904 71.4617 24.4598 73.4835 30.8161 74.1898L31.2579 70.2142ZM16.1201 64.8032C11.7579 61.7686 8.37687 57.8231 5.96449 52.9349L2.37751 54.7051C5.08246 60.1862 8.90609 64.6574 13.8359 68.0868L16.1201 64.8032ZM5.96449 52.9349C3.55559 48.0537 2.333 42.5708 2.333 36.448H-1.667C-1.667 43.1186 -0.330922 49.217 2.37751 54.7051L5.96449 52.9349ZM2.333 36.448C2.333 29.7429 3.78079 23.8562 6.62631 18.7343L3.12969 16.7917C-0.084789 22.5778 -1.667 29.1478 -1.667 36.448H2.333ZM6.63133 18.7252C9.4853 13.5246 13.4288 9.52243 18.4835 6.67915L16.5225 3.19284C10.8039 6.40956 6.3307 10.9587 3.12467 16.8008L6.63133 18.7252ZM18.4907 6.67512C23.6155 3.76471 29.4305 2.29 35.986 2.29V-1.71C28.8055 -1.71 22.2985 -0.0873909 16.5154 3.19687L18.4907 6.67512ZM35.986 2.29C44.0312 2.29 50.8041 4.4063 56.4087 8.56247L58.7913 5.34952C52.4105 0.617695 44.7742 -1.71 35.986 -1.71V2.29ZM56.4087 8.56247C62.0119 12.7177 65.7726 18.3784 67.6849 25.645L71.5532 24.627C69.4254 16.5416 65.1734 10.0823 58.7913 5.34952L56.4087 8.56247ZM69.619 23.136H50.631V27.136H69.619V23.136ZM52.436 24.2745C50.8643 20.9816 48.5824 18.4128 45.587 16.6463L43.555 20.0917C45.8116 21.4225 47.5697 23.3651 48.826 25.9975L52.436 24.2745ZM45.6066 16.658C42.704 14.9011 39.4096 14.046 35.784 14.046V18.046C38.757 18.046 41.3207 18.7395 43.5354 20.08L45.6066 16.658ZM35.784 14.046C29.9408 14.046 25.0715 16.1077 21.3627 20.2706L24.3493 22.9314C27.2392 19.6877 30.9885 18.046 35.784 18.046V14.046ZM21.3627 20.2706C17.6615 24.425 15.907 29.8896 15.907 36.448H19.907C19.907 30.6171 21.4519 26.1836 24.3493 22.9314L21.3627 20.2706ZM15.907 36.448C15.907 43.0064 17.6615 48.471 21.3627 52.6254L24.3493 49.9646C21.4519 46.7123 19.907 42.2789 19.907 36.448H15.907ZM21.3627 52.6254C25.0715 56.7883 29.9408 58.85 35.784 58.85V54.85C30.9885 54.85 27.2392 53.2083 24.3493 49.9646L21.3627 52.6254ZM95.3456 68.061L94.3671 69.8053L94.3761 69.8103L95.3456 68.061ZM82.1146 55.133L80.3833 56.1342L80.3904 56.1466L80.3978 56.1589L82.1146 55.133ZM82.1146 17.662L80.3978 16.6361L80.3931 16.6438L80.3886 16.6516L82.1146 17.662ZM95.3456 4.734L94.3761 2.98467L94.3671 2.98971L95.3456 4.734ZM132.009 4.734L131.03 6.47831L131.039 6.48331L132.009 4.734ZM145.139 17.662L143.403 18.6566L143.408 18.6645L143.413 18.6724L145.139 17.662ZM145.139 55.133L146.865 56.1434L146.87 56.1342L145.139 55.133ZM132.009 68.061L132.987 69.8053L132.009 68.061ZM127.262 51.295L125.783 49.9483L125.776 49.9556L125.77 49.963L127.262 51.295ZM127.262 21.399L125.77 22.731L125.782 22.7451L125.795 22.7589L127.262 21.399ZM99.9916 21.298L98.5251 19.9381L98.5183 19.9454L98.5117 19.9527L99.9916 21.298ZM99.9916 51.396L98.4997 52.728L98.5123 52.7421L98.5251 52.7559L99.9916 51.396ZM113.728 70.707C107.386 70.707 101.594 69.2374 96.3151 66.3117L94.3761 69.8103C100.274 73.0793 106.738 74.707 113.728 74.707V70.707ZM96.3241 66.3167C91.1124 63.3931 86.9546 59.3336 83.8314 54.1071L80.3978 56.1589C83.8733 61.975 88.5361 66.5342 94.3671 69.8053L96.3241 66.3167ZM83.8459 54.1318C80.803 48.87 79.2666 42.9578 79.2666 36.347H75.2666C75.2666 43.6069 76.9622 50.2187 80.3833 56.1342L83.8459 54.1318ZM79.2666 36.347C79.2666 29.736 80.803 23.8617 83.8406 18.6724L80.3886 16.6516C76.9622 22.505 75.2666 29.0873 75.2666 36.347H79.2666ZM83.8314 18.6879C86.9546 13.4614 91.1124 9.40189 96.3241 6.47829L94.3671 2.98971C88.5361 6.26077 83.8733 10.82 80.3978 16.6361L83.8314 18.6879ZM96.3151 6.48331C101.594 3.55763 107.386 2.088 113.728 2.088V-1.912C106.738 -1.912 100.274 -0.284298 94.3761 2.98469L96.3151 6.48331ZM113.728 2.088C120.07 2.088 125.824 3.55758 131.03 6.47829L132.987 2.98971C127.151 -0.284252 120.717 -1.912 113.728 -1.912V2.088ZM131.039 6.48331C136.31 9.40441 140.421 13.4533 143.403 18.6566L146.874 16.6674C143.527 10.828 138.885 6.25825 132.978 2.98469L131.039 6.48331ZM143.413 18.6724C146.45 23.8617 147.987 29.736 147.987 36.347H151.987C151.987 29.0873 150.291 22.505 146.865 16.6516L143.413 18.6724ZM147.987 36.347C147.987 42.9578 146.45 48.87 143.407 54.1318L146.87 56.1342C150.291 50.2187 151.987 43.6069 151.987 36.347H147.987ZM143.413 54.1226C140.358 59.3407 136.238 63.3952 131.03 66.3167L132.987 69.8053C138.822 66.5322 143.455 61.968 146.865 56.1434L143.413 54.1226ZM131.03 66.3167C125.824 69.2374 120.07 70.707 113.728 70.707V74.707C120.717 74.707 127.151 73.0793 132.987 69.8053L131.03 66.3167ZM113.728 58.951C119.878 58.951 124.96 56.8759 128.753 52.627L125.77 49.963C122.83 53.2554 118.889 54.951 113.728 54.951V58.951ZM128.74 52.6417C132.578 48.4273 134.413 42.9274 134.413 36.347H130.413C130.413 42.1559 128.813 46.6214 125.783 49.9483L128.74 52.6417ZM134.413 36.347C134.413 29.7073 132.582 24.1957 128.728 20.0391L125.795 22.7589C128.809 26.0089 130.413 30.4627 130.413 36.347H134.413ZM128.753 20.067C124.96 15.8181 119.878 13.743 113.728 13.743V17.743C118.889 17.743 122.83 19.4386 125.77 22.731L128.753 20.067ZM113.728 13.743C107.529 13.743 102.39 15.7703 98.5251 19.9381L101.458 22.6579C104.461 19.419 108.479 17.743 113.728 17.743V13.743ZM98.5117 19.9527C94.7286 24.114 92.9416 29.6567 92.9416 36.347H96.9416C96.9416 30.3786 98.5212 25.8886 101.471 22.6433L98.5117 19.9527ZM92.9416 36.347C92.9416 42.9781 94.7326 48.5089 98.4997 52.728L101.483 50.064C98.5172 46.7418 96.9416 42.2399 96.9416 36.347H92.9416ZM98.5251 52.7559C102.39 56.9237 107.529 58.951 113.728 58.951V54.951C108.479 54.951 104.461 53.275 101.458 50.0361L98.5251 52.7559ZM200.702 72L199.111 73.2115L199.711 74H200.702V72ZM176.866 40.69L178.457 39.4785L174.866 34.7611V40.69H176.866ZM176.866 72V74H178.866V72H176.866ZM159.595 72H157.595V74H159.595V72ZM159.595 1.098V-0.902H157.595V1.098H159.595ZM176.866 1.098H178.866V-0.902H176.866V1.098ZM176.866 32.206H174.866V38.1445L178.459 33.4159L176.866 32.206ZM200.5 1.098V-0.902H199.508L198.907 -0.111908L200.5 1.098ZM220.801 1.098L222.37 2.33847L224.932 -0.902H220.801V1.098ZM193.329 35.842L191.76 34.6015L190.781 35.8397L191.758 37.0796L193.329 35.842ZM221.811 72V74H225.932L223.382 70.7624L221.811 72ZM202.293 70.7885L178.457 39.4785L175.275 41.9015L199.111 73.2115L202.293 70.7885ZM174.866 40.69V72H178.866V40.69H174.866ZM176.866 70H159.595V74H176.866V70ZM161.595 72V1.098H157.595V72H161.595ZM159.595 3.098H176.866V-0.902H159.595V3.098ZM174.866 1.098V32.206H178.866V1.098H174.866ZM178.459 33.4159L202.093 2.3079L198.907 -0.111908L175.273 30.9961L178.459 33.4159ZM200.5 3.098H220.801V-0.902H200.5V3.098ZM219.232 -0.142475L191.76 34.6015L194.898 37.0825L222.37 2.33847L219.232 -0.142475ZM191.758 37.0796L220.24 73.2376L223.382 70.7624L194.9 34.6044L191.758 37.0796ZM221.811 70H200.702V74H221.811V70ZM312.224 1.098L314.001 2.01654L315.51 -0.902H312.224V1.098ZM287.681 48.568L285.905 47.6495L285.681 48.0816V48.568H287.681ZM287.681 72V74H289.681V72H287.681ZM270.41 72H268.41V74H270.41V72ZM270.41 48.568H272.41V48.0816L272.187 47.6495L270.41 48.568ZM245.867 1.098V-0.902H242.582L244.091 2.01654L245.867 1.098ZM265.461 1.098L267.276 0.258316L266.74 -0.902H265.461V1.098ZM279.197 30.792L277.382 31.6317L279.204 35.5702L281.015 31.6266L279.197 30.792ZM292.832 1.098V-0.902H291.55L291.015 0.263412L292.832 1.098ZM310.448 0.179459L285.905 47.6495L289.458 49.4865L314.001 2.01654L310.448 0.179459ZM285.681 48.568V72H289.681V48.568H285.681ZM287.681 70H270.41V74H287.681V70ZM272.41 72V48.568H268.41V72H272.41ZM272.187 47.6495L247.644 0.179459L244.091 2.01654L268.634 49.4865L272.187 47.6495ZM245.867 3.098H265.461V-0.902H245.867V3.098ZM263.646 1.93768L277.382 31.6317L281.012 29.9523L267.276 0.258316L263.646 1.93768ZM281.015 31.6266L294.65 1.93258L291.015 0.263412L277.38 29.9574L281.015 31.6266ZM292.832 3.098H312.224V-0.902H292.832V3.098ZM363.32 59.476L365.214 58.8344L364.754 57.476H363.32V59.476ZM336.858 59.476V57.476H335.424L334.964 58.8344L336.858 59.476ZM332.616 72V74H334.05L334.51 72.6416L332.616 72ZM314.537 72L312.656 71.3195L311.686 74H314.537V72ZM340.191 1.098V-0.902H338.788L338.31 0.417522L340.191 1.098ZM360.189 1.098L362.07 0.417522L361.592 -0.902H360.189V1.098ZM385.843 72V74H388.693L387.724 71.3195L385.843 72ZM367.562 72L365.668 72.6416L366.128 74H367.562V72ZM358.876 46.144V48.144H361.664L360.77 45.5027L358.876 46.144ZM350.089 20.187L351.983 19.5457L350.078 13.9172L348.192 19.5523L350.089 20.187ZM341.403 46.144L339.506 45.5093L338.625 48.144H341.403V46.144ZM363.32 57.476H336.858V61.476H363.32V57.476ZM334.964 58.8344L330.722 71.3584L334.51 72.6416L338.752 60.1176L334.964 58.8344ZM332.616 70H314.537V74H332.616V70ZM316.418 72.6805L342.072 1.77847L338.31 0.417522L312.656 71.3195L316.418 72.6805ZM340.191 3.098H360.189V-0.902H340.191V3.098ZM358.308 1.77847L383.962 72.6805L387.724 71.3195L362.07 0.417522L358.308 1.77847ZM385.843 70H367.562V74H385.843V70ZM369.456 71.3584L365.214 58.8344L361.426 60.1176L365.668 72.6416L369.456 71.3584ZM360.77 45.5027L351.983 19.5457L348.195 20.8283L356.982 46.7853L360.77 45.5027ZM348.192 19.5523L339.506 45.5093L343.3 46.7787L351.986 20.8217L348.192 19.5523ZM341.403 48.144H358.876V44.144H341.403V48.144ZM434.758 72L433.166 73.2115L433.767 74H434.758V72ZM410.922 40.69L412.513 39.4785L408.922 34.7611V40.69H410.922ZM410.922 72V74H412.922V72H410.922ZM393.651 72H391.651V74H393.651V72ZM393.651 1.098V-0.902H391.651V1.098H393.651ZM410.922 1.098H412.922V-0.902H410.922V1.098ZM410.922 32.206H408.922V38.1445L412.514 33.4159L410.922 32.206ZM434.556 1.098V-0.902H433.563L432.963 -0.111908L434.556 1.098ZM454.857 1.098L456.426 2.33847L458.988 -0.902H454.857V1.098ZM427.385 35.842L425.816 34.6015L424.837 35.8397L425.814 37.0796L427.385 35.842ZM455.867 72V74H459.988L457.438 70.7624L455.867 72ZM436.349 70.7885L412.513 39.4785L409.33 41.9015L433.166 73.2115L436.349 70.7885ZM408.922 40.69V72H412.922V40.69H408.922ZM410.922 70H393.651V74H410.922V70ZM395.651 72V1.098H391.651V72H395.651ZM393.651 3.098H410.922V-0.902H393.651V3.098ZM408.922 1.098V32.206H412.922V1.098H408.922ZM412.514 33.4159L436.148 2.3079L432.963 -0.111908L409.329 30.9961L412.514 33.4159ZM434.556 3.098H454.857V-0.902H434.556V3.098ZM453.288 -0.142475L425.816 34.6015L428.953 37.0825L456.426 2.33847L453.288 -0.142475ZM425.814 37.0796L454.296 73.2376L457.438 70.7624L428.956 34.6044L425.814 37.0796ZM455.867 70H434.758V74H455.867V70ZM481.345 1.098H483.345V-0.902H481.345V1.098ZM481.345 72V74H483.345V72H481.345ZM464.074 72H462.074V74H464.074V72ZM464.074 1.098V-0.902H462.074V1.098H464.074ZM479.345 1.098V72H483.345V1.098H479.345ZM481.345 70H464.074V74H481.345V70ZM466.074 72V1.098H462.074V72H466.074ZM464.074 3.098H481.345V-0.902H464.074V3.098ZM557.29 72V74H559.29V72H557.29ZM540.019 72L538.35 73.1023L538.943 74H540.019V72ZM511.133 28.267L512.801 27.1647L509.133 21.6102V28.267H511.133ZM511.133 72V74H513.133V72H511.133ZM493.862 72H491.862V74H493.862V72ZM493.862 1.098V-0.902H491.862V1.098H493.862ZM511.133 1.098L512.804 -0.000740051L512.211 -0.902H511.133V1.098ZM540.019 45.033L538.347 46.1317L542.019 51.7155V45.033H540.019ZM540.019 1.098V-0.902H538.019V1.098H540.019ZM557.29 1.098H559.29V-0.902H557.29V1.098ZM557.29 70H540.019V74H557.29V70ZM541.687 70.8977L512.801 27.1647L509.464 29.3693L538.35 73.1023L541.687 70.8977ZM509.133 28.267V72H513.133V28.267H509.133ZM511.133 70H493.862V74H511.133V70ZM495.862 72V1.098H491.862V72H495.862ZM493.862 3.098H511.133V-0.902H493.862V3.098ZM509.461 2.19674L538.347 46.1317L541.69 43.9343L512.804 -0.000740051L509.461 2.19674ZM542.019 45.033V1.098H538.019V45.033H542.019ZM540.019 3.098H557.29V-0.902H540.019V3.098ZM555.29 1.098V72H559.29V1.098H555.29ZM615.966 5.542L616.903 3.77494L615.966 5.542ZM628.894 18.066L627.151 19.0465L627.158 19.0595L627.166 19.0724L628.894 18.066ZM628.894 55.032L627.16 54.0351L627.155 54.0432L627.151 54.0515L628.894 55.032ZM615.865 67.556L614.937 65.7843L614.928 65.7889L615.865 67.556ZM569.809 72H567.809V74H569.809V72ZM569.809 1.098V-0.902H567.809V1.098H569.809ZM587.08 15.844V13.844H585.08V15.844H587.08ZM587.08 57.052H585.08V59.052H587.08V57.052ZM596.372 3.098C603.578 3.098 609.777 4.52488 615.029 7.30905L616.903 3.77494C610.977 0.633781 604.113 -0.902 596.372 -0.902V3.098ZM615.029 7.30905C620.288 10.0967 624.313 14.0021 627.151 19.0465L630.637 17.0855C627.415 11.3566 622.821 6.91265 616.903 3.77494L615.029 7.30905ZM627.166 19.0724C630.062 24.046 631.54 29.8504 631.54 36.549H635.54C635.54 29.2423 633.921 22.7246 630.622 17.0596L627.166 19.0724ZM631.54 36.549C631.54 43.176 630.063 48.9858 627.16 54.0351L630.628 56.0289C633.919 50.3049 635.54 43.7927 635.54 36.549H631.54ZM627.151 54.0515C624.317 59.0896 620.262 62.9948 614.937 65.7843L616.793 69.3277C622.779 66.1919 627.411 61.7477 630.637 56.0125L627.151 54.0515ZM614.928 65.7889C609.674 68.5744 603.508 70 596.372 70V74C604.049 74 610.879 72.4629 616.802 69.3231L614.928 65.7889ZM596.372 70H569.809V74H596.372V70ZM571.809 72V1.098H567.809V72H571.809ZM569.809 3.098H596.372V-0.902H569.809V3.098ZM595.261 59.052C602.162 59.052 607.806 57.1576 611.913 53.1264L609.111 50.2716C605.946 53.3778 601.423 55.052 595.261 55.052V59.052ZM611.913 53.1264C616.032 49.0832 617.966 43.4582 617.966 36.549H613.966C613.966 42.7025 612.263 47.1775 609.111 50.2716L611.913 53.1264ZM617.966 36.549C617.966 29.6378 616.032 23.9894 611.926 19.8838L609.098 22.7122C612.264 25.8786 613.966 30.3975 613.966 36.549H617.966ZM611.926 19.8838C607.82 15.7782 602.172 13.844 595.261 13.844V17.844C601.412 17.844 605.931 19.5458 609.098 22.7122L611.926 19.8838ZM595.261 13.844H587.08V17.844H595.261V13.844ZM585.08 15.844V57.052H589.08V15.844H585.08ZM587.08 59.052H595.261V55.052H587.08V59.052ZM687.329 59.476L689.223 58.8344L688.763 57.476H687.329V59.476ZM660.867 59.476V57.476H659.432L658.972 58.8344L660.867 59.476ZM656.625 72V74H658.059L658.519 72.6416L656.625 72ZM638.546 72L636.665 71.3195L635.695 74H638.546V72ZM664.2 1.098V-0.902H662.796L662.319 0.417522L664.2 1.098ZM684.198 1.098L686.078 0.417522L685.601 -0.902H684.198V1.098ZM709.852 72V74H712.702L711.732 71.3195L709.852 72ZM691.571 72L689.676 72.6416L690.136 74H691.571V72ZM682.885 46.144V48.144H685.673L684.779 45.5027L682.885 46.144ZM674.098 20.187L675.992 19.5457L674.087 13.9172L672.201 19.5523L674.098 20.187ZM665.412 46.144L663.515 45.5093L662.633 48.144H665.412V46.144ZM687.329 57.476H660.867V61.476H687.329V57.476ZM658.972 58.8344L654.73 71.3584L658.519 72.6416L662.761 60.1176L658.972 58.8344ZM656.625 70H638.546V74H656.625V70ZM640.426 72.6805L666.08 1.77847L662.319 0.417522L636.665 71.3195L640.426 72.6805ZM664.2 3.098H684.198V-0.902H664.2V3.098ZM682.317 1.77847L707.971 72.6805L711.732 71.3195L686.078 0.417522L682.317 1.77847ZM709.852 70H691.571V74H709.852V70ZM693.465 71.3584L689.223 58.8344L685.434 60.1176L689.676 72.6416L693.465 71.3584ZM684.779 45.5027L675.992 19.5457L672.203 20.8283L680.99 46.7853L684.779 45.5027ZM672.201 19.5523L663.515 45.5093L667.308 46.7787L675.994 20.8217L672.201 19.5523ZM665.412 48.144H682.885V44.144H665.412V48.144ZM781.988 35.64L781.42 33.7224L781.571 37.5961L781.988 35.64ZM791.886 41.801L790.302 43.022L790.308 43.0301L790.314 43.0381L791.886 41.801ZM789.361 66.849L790.644 68.3834L790.646 68.3814L789.361 66.849ZM739.063 72H737.063V74H739.063V72ZM739.063 1.098V-0.902H737.063V1.098H739.063ZM787.846 6.04699L786.581 7.59606L786.587 7.60117L786.593 7.60624L787.846 6.04699ZM790.674 29.883L789.116 28.629L789.106 28.6406L789.097 28.6525L790.674 29.883ZM756.334 29.782H754.334V31.782H756.334V29.782ZM774.11 27.964L775.376 29.5119L775.384 29.5059L774.11 27.964ZM774.11 16.854L772.803 18.3676L772.819 18.382L772.836 18.3959L774.11 16.854ZM756.334 14.935V12.935H754.334V14.935H756.334ZM775.726 56.143L777 57.6849L777.006 57.6794L775.726 56.143ZM775.625 44.528L774.308 46.0331L774.323 46.0464L774.338 46.0594L775.625 44.528ZM756.334 42.407V40.407H754.334V42.407H756.334ZM756.334 58.062H754.334V60.062H756.334V58.062ZM781.571 37.5961C785.229 38.3757 788.109 40.1775 790.302 43.022L793.47 40.58C790.68 36.9605 786.961 34.655 782.405 33.6839L781.571 37.5961ZM790.314 43.0381C792.522 45.8427 793.623 49.0408 793.623 52.709H797.623C797.623 48.1625 796.232 44.0887 793.457 40.5639L790.314 43.0381ZM793.623 52.709C793.623 58.1017 791.754 62.2315 788.076 65.3166L790.646 68.3814C795.317 64.4639 797.623 59.167 797.623 52.709H793.623ZM788.078 65.3146C784.447 68.3503 779.206 70 772.09 70V74C779.787 74 786.06 72.2157 790.644 68.3834L788.078 65.3146ZM772.09 70H739.063V74H772.09V70ZM741.063 72V1.098H737.063V72H741.063ZM739.063 3.098H770.979V-0.902H739.063V3.098ZM770.979 3.098C777.897 3.098 783.013 4.68223 786.581 7.59606L789.111 4.49793C784.599 0.813095 778.47 -0.902 770.979 -0.902V3.098ZM786.593 7.60624C790.19 10.495 792.007 14.379 792.007 19.48H796.007C796.007 13.269 793.717 8.19764 789.098 4.48775L786.593 7.60624ZM792.007 19.48C792.007 23.2832 791.003 26.2845 789.116 28.629L792.232 31.137C794.789 27.9601 796.007 24.0261 796.007 19.48H792.007ZM789.097 28.6525C787.22 31.0571 784.691 32.7531 781.42 33.7224L782.556 37.5576C786.557 36.3722 789.818 34.2303 792.25 31.1135L789.097 28.6525ZM756.334 31.782H767.646V27.782H756.334V31.782ZM767.646 31.782C770.722 31.782 773.402 31.1275 775.376 29.5119L772.843 26.4161C771.855 27.2245 770.225 27.782 767.646 27.782V31.782ZM775.384 29.5059C777.488 27.7678 778.433 25.2935 778.433 22.409H774.433C774.433 24.3724 773.829 25.6016 772.836 26.4221L775.384 29.5059ZM778.433 22.409C778.433 19.5244 777.488 17.0502 775.384 15.3121L772.836 18.3959C773.829 19.2164 774.433 20.4455 774.433 22.409H778.433ZM775.417 15.3404C773.44 13.6331 770.744 12.935 767.646 12.935V16.935C770.203 16.935 771.817 17.5162 772.803 18.3676L775.417 15.3404ZM767.646 12.935H756.334V16.935H767.646V12.935ZM754.334 14.935V29.782H758.334V14.935H754.334ZM769.06 60.062C772.22 60.062 774.964 59.3669 777 57.6849L774.452 54.6011C773.391 55.4778 771.691 56.062 769.06 56.062V60.062ZM777.006 57.6794C779.164 55.8815 780.15 53.3497 780.15 50.386H776.15C776.15 52.405 775.52 53.7112 774.445 54.6066L777.006 57.6794ZM780.15 50.386C780.15 47.3921 779.11 44.8439 776.911 42.9966L774.338 46.0594C775.506 47.0401 776.15 48.3972 776.15 50.386H780.15ZM776.942 43.0228C774.851 41.1932 772.067 40.407 768.858 40.407V44.407C771.439 44.407 773.167 45.0348 774.308 46.0331L776.942 43.0228ZM768.858 40.407H756.334V44.407H768.858V40.407ZM754.334 42.407V58.062H758.334V42.407H754.334ZM756.334 60.062H769.06V56.062H756.334V60.062ZM822.608 1.098H824.608V-0.902H822.608V1.098ZM825.739 53.315L824.261 54.6625L825.739 53.315ZM844.222 53.315L845.678 54.6857L844.222 53.315ZM847.454 1.098V-0.902H845.454V1.098H847.454ZM864.725 1.098H866.725V-0.902H864.725V1.098ZM860.685 59.476L862.388 60.5242L860.685 59.476ZM849.777 69.374L848.904 67.5747L848.893 67.5798L849.777 69.374ZM819.578 69.475L818.673 71.2583L818.689 71.2666L818.705 71.2746L819.578 69.475ZM809.175 59.577L807.442 60.575L807.448 60.5864L809.175 59.577ZM805.337 1.098V-0.902H803.337V1.098H805.337ZM820.608 1.098V43.518H824.608V1.098H820.608ZM820.608 43.518C820.608 48.0727 821.731 51.8873 824.261 54.6625L827.217 51.9675C825.573 50.164 824.608 47.4473 824.608 43.518H820.608ZM824.261 54.6625C826.834 57.4845 830.508 58.749 834.93 58.749V54.749C831.272 54.749 828.818 53.7242 827.217 51.9675L824.261 54.6625ZM834.93 58.749C839.355 58.749 843.045 57.4834 845.678 54.6857L842.766 51.9443C841.089 53.7253 838.585 54.749 834.93 54.749V58.749ZM845.678 54.6857C848.289 51.9116 849.454 48.0881 849.454 43.518H845.454C845.454 47.4319 844.464 50.1398 842.766 51.9443L845.678 54.6857ZM849.454 43.518V1.098H845.454V43.518H849.454ZM847.454 3.098H864.725V-0.902H847.454V3.098ZM862.725 1.098V43.417H866.725V1.098H862.725ZM862.725 43.417C862.725 49.4618 861.441 54.4321 858.982 58.4278L862.388 60.5242C865.316 55.7666 866.725 50.0308 866.725 43.417H862.725ZM858.982 58.4278C856.486 62.4835 853.136 65.5206 848.904 67.5747L850.65 71.1733C855.575 68.7834 859.497 65.2218 862.388 60.5242L858.982 58.4278ZM848.893 67.5798C844.686 69.652 839.944 70.707 834.627 70.707V74.707C840.488 74.707 845.845 73.54 850.661 71.1682L848.893 67.5798ZM834.627 70.707C829.301 70.707 824.589 69.6818 820.451 67.6754L818.705 71.2746C823.455 73.5776 828.776 74.707 834.627 74.707V70.707ZM820.483 67.6917C816.461 65.6494 813.273 62.6243 810.902 58.5676L807.448 60.5864C810.194 65.283 813.942 68.8566 818.673 71.2583L820.483 67.6917ZM810.908 58.5791C808.561 54.5021 807.337 49.4775 807.337 43.417H803.337C803.337 50.0152 804.672 55.7639 807.442 60.5749L810.908 58.5791ZM807.337 43.417V1.098H803.337V43.417H807.337ZM805.337 3.098H822.608V-0.902H805.337V3.098ZM913.011 72L911.259 72.9651L911.829 74H913.011V72ZM898.265 45.235L900.017 44.2699L899.446 43.235H898.265V45.235ZM894.124 45.235V43.235H892.124V45.235H894.124ZM894.124 72V74H896.124V72H894.124ZM876.853 72H874.853V74H876.853V72ZM876.853 1.098V-0.902H874.853V1.098H876.853ZM920.081 4.027L919.186 5.81589L919.199 5.8219L920.081 4.027ZM928.969 12.107L927.23 13.0956L927.234 13.103L927.239 13.1104L928.969 12.107ZM927.858 36.044L926.24 34.8677L926.233 34.8774L926.226 34.8871L927.858 36.044ZM916.142 43.922L915.569 42.0057L913.134 42.7331L914.414 44.929L916.142 43.922ZM932.504 72V74H935.984L934.232 70.993L932.504 72ZM894.124 33.014H892.124V35.014H894.124V33.014ZM911.9 30.691L910.516 29.247L910.501 29.2617L910.486 29.2768L911.9 30.691ZM911.9 17.763L910.486 19.1772L910.501 19.1923L910.516 19.207L911.9 17.763ZM894.124 15.44V13.44H892.124V15.44H894.124ZM914.763 71.0349L900.017 44.2699L896.513 46.2001L911.259 72.9651L914.763 71.0349ZM898.265 43.235H894.124V47.235H898.265V43.235ZM892.124 45.235V72H896.124V45.235H892.124ZM894.124 70H876.853V74H894.124V70ZM878.853 72V1.098H874.853V72H878.853ZM876.853 3.098H905.84V-0.902H876.853V3.098ZM905.84 3.098C911.202 3.098 915.625 4.03537 919.186 5.81585L920.975 2.23814C916.726 0.113297 911.655 -0.902 905.84 -0.902V3.098ZM919.199 5.8219C922.856 7.61984 925.499 10.0513 927.23 13.0956L930.707 11.1184C928.533 7.29466 925.25 4.33949 920.963 2.2321L919.199 5.8219ZM927.239 13.1104C929.002 16.1501 929.898 19.5703 929.898 23.419H933.898C933.898 18.9184 932.841 14.7972 930.699 11.1036L927.239 13.1104ZM929.898 23.419C929.898 27.7229 928.677 31.5167 926.24 34.8677L929.475 37.2203C932.425 33.1646 933.898 28.5418 933.898 23.419H929.898ZM926.226 34.8871C923.906 38.1598 920.411 40.5594 915.569 42.0057L916.714 45.8383C922.242 44.1873 926.558 41.3348 929.489 37.2009L926.226 34.8871ZM914.414 44.929L930.776 73.007L934.232 70.993L917.87 42.915L914.414 44.929ZM932.504 70H913.011V74H932.504V70ZM894.124 35.014H904.83V31.014H894.124V35.014ZM904.83 35.014C908.288 35.014 911.251 34.1684 913.314 32.1052L910.486 29.2768C909.451 30.3109 907.701 31.014 904.83 31.014V35.014ZM913.284 32.135C915.391 30.1153 916.324 27.347 916.324 24.126H912.324C912.324 26.561 911.641 28.1693 910.516 29.247L913.284 32.135ZM916.324 24.126C916.324 21.0068 915.372 18.3202 913.284 16.319L910.516 19.207C911.66 20.3031 912.324 21.8585 912.324 24.126H916.324ZM913.314 16.3488C911.251 14.2856 908.288 13.44 904.83 13.44V17.44C907.701 17.44 909.451 18.1431 910.486 19.1772L913.314 16.3488ZM904.83 13.44H894.124V17.44H904.83V13.44ZM892.124 15.44V33.014H896.124V15.44H892.124ZM986.877 59.476L988.771 58.8344L988.311 57.476H986.877V59.476ZM960.415 59.476V57.476H958.98L958.52 58.8344L960.415 59.476ZM956.173 72V74H957.607L958.067 72.6416L956.173 72ZM938.094 72L936.213 71.3195L935.243 74H938.094V72ZM963.748 1.098V-0.902H962.344L961.867 0.417522L963.748 1.098ZM983.746 1.098L985.626 0.417522L985.149 -0.902H983.746V1.098ZM1009.4 72V74H1012.25L1011.28 71.3195L1009.4 72ZM991.119 72L989.224 72.6416L989.684 74H991.119V72ZM982.433 46.144V48.144H985.221L984.327 45.5027L982.433 46.144ZM973.646 20.187L975.54 19.5457L973.635 13.9172L971.749 19.5523L973.646 20.187ZM964.96 46.144L963.063 45.5093L962.181 48.144H964.96V46.144ZM986.877 57.476H960.415V61.476H986.877V57.476ZM958.52 58.8344L954.278 71.3584L958.067 72.6416L962.309 60.1176L958.52 58.8344ZM956.173 70H938.094V74H956.173V70ZM939.974 72.6805L965.628 1.77847L961.867 0.417522L936.213 71.3195L939.974 72.6805ZM963.748 3.098H983.746V-0.902H963.748V3.098ZM981.865 1.77847L1007.52 72.6805L1011.28 71.3195L985.626 0.417522L981.865 1.77847ZM1009.4 70H991.119V74H1009.4V70ZM993.013 71.3584L988.771 58.8344L984.982 60.1176L989.224 72.6416L993.013 71.3584ZM984.327 45.5027L975.54 19.5457L971.751 20.8283L980.538 46.7853L984.327 45.5027ZM971.749 19.5523L963.063 45.5093L966.856 46.7787L975.542 20.8217L971.749 19.5523ZM964.96 48.144H982.433V44.144H964.96V48.144ZM1063.36 5.542L1064.3 3.77494L1063.36 5.542ZM1076.29 18.066L1074.55 19.0465L1074.56 19.0595L1074.56 19.0724L1076.29 18.066ZM1076.29 55.032L1074.56 54.0351L1074.55 54.0432L1074.55 54.0515L1076.29 55.032ZM1063.26 67.556L1062.34 65.7843L1062.33 65.7889L1063.26 67.556ZM1017.21 72H1015.21V74H1017.21V72ZM1017.21 1.098V-0.902H1015.21V1.098H1017.21ZM1034.48 15.844V13.844H1032.48V15.844H1034.48ZM1034.48 57.052H1032.48V59.052H1034.48V57.052ZM1043.77 3.098C1050.98 3.098 1057.18 4.52488 1062.43 7.30905L1064.3 3.77494C1058.38 0.633781 1051.51 -0.902 1043.77 -0.902V3.098ZM1062.43 7.30905C1067.69 10.0967 1071.71 14.0021 1074.55 19.0465L1078.04 17.0855C1074.81 11.3566 1070.22 6.91265 1064.3 3.77494L1062.43 7.30905ZM1074.56 19.0724C1077.46 24.046 1078.94 29.8504 1078.94 36.549H1082.94C1082.94 29.2423 1081.32 22.7246 1078.02 17.0596L1074.56 19.0724ZM1078.94 36.549C1078.94 43.176 1077.46 48.9858 1074.56 54.0351L1078.03 56.0289C1081.32 50.3049 1082.94 43.7927 1082.94 36.549H1078.94ZM1074.55 54.0515C1071.72 59.0896 1067.66 62.9948 1062.34 65.7843L1064.19 69.3277C1070.18 66.1919 1074.81 61.7477 1078.04 56.0125L1074.55 54.0515ZM1062.33 65.7889C1057.07 68.5744 1050.91 70 1043.77 70V74C1051.45 74 1058.28 72.4629 1064.2 69.3231L1062.33 65.7889ZM1043.77 70H1017.21V74H1043.77V70ZM1019.21 72V1.098H1015.21V72H1019.21ZM1017.21 3.098H1043.77V-0.902H1017.21V3.098ZM1042.66 59.052C1049.56 59.052 1055.2 57.1576 1059.31 53.1264L1056.51 50.2716C1053.34 53.3778 1048.82 55.052 1042.66 55.052V59.052ZM1059.31 53.1264C1063.43 49.0832 1065.36 43.4582 1065.36 36.549H1061.36C1061.36 42.7025 1059.66 47.1775 1056.51 50.2716L1059.31 53.1264ZM1065.36 36.549C1065.36 29.6378 1063.43 23.9894 1059.32 19.8838L1056.5 22.7122C1059.66 25.8786 1061.36 30.3975 1061.36 36.549H1065.36ZM1059.32 19.8838C1055.22 15.7782 1049.57 13.844 1042.66 13.844V17.844C1048.81 17.844 1053.33 19.5458 1056.5 22.7122L1059.32 19.8838ZM1042.66 13.844H1034.48V17.844H1042.66V13.844ZM1032.48 15.844V57.052H1036.48V15.844H1032.48ZM1034.48 59.052H1042.66V55.052H1034.48V59.052ZM1134.73 59.476L1136.62 58.8344L1136.16 57.476H1134.73V59.476ZM1108.27 59.476V57.476H1106.83L1106.37 58.8344L1108.27 59.476ZM1104.02 72V74H1105.46L1105.92 72.6416L1104.02 72ZM1085.94 72L1084.06 71.3195L1083.09 74H1085.94V72ZM1111.6 1.098V-0.902H1110.19L1109.72 0.417522L1111.6 1.098ZM1131.6 1.098L1133.48 0.417522L1133 -0.902H1131.6V1.098ZM1157.25 72V74H1160.1L1159.13 71.3195L1157.25 72ZM1138.97 72L1137.07 72.6416L1137.53 74H1138.97V72ZM1130.28 46.144V48.144H1133.07L1132.18 45.5027L1130.28 46.144ZM1121.5 20.187L1123.39 19.5457L1121.49 13.9172L1119.6 19.5523L1121.5 20.187ZM1112.81 46.144L1110.91 45.5093L1110.03 48.144H1112.81V46.144ZM1134.73 57.476H1108.27V61.476H1134.73V57.476ZM1106.37 58.8344L1102.13 71.3584L1105.92 72.6416L1110.16 60.1176L1106.37 58.8344ZM1104.02 70H1085.94V74H1104.02V70ZM1087.82 72.6805L1113.48 1.77847L1109.72 0.417522L1084.06 71.3195L1087.82 72.6805ZM1111.6 3.098H1131.6V-0.902H1111.6V3.098ZM1129.72 1.77847L1155.37 72.6805L1159.13 71.3195L1133.48 0.417522L1129.72 1.77847ZM1157.25 70H1138.97V74H1157.25V70ZM1140.86 71.3584L1136.62 58.8344L1132.83 60.1176L1137.07 72.6416L1140.86 71.3584ZM1132.18 45.5027L1123.39 19.5457L1119.6 20.8283L1128.39 46.7853L1132.18 45.5027ZM1119.6 19.5523L1110.91 45.5093L1114.71 46.7787L1123.39 20.8217L1119.6 19.5523ZM1112.81 48.144H1130.28V44.144H1112.81V48.144Z" fill="white" mask="url(#path-1-outside-1_7_41)"/>
</svg>
