<svg width="450" height="130" viewBox="0 0 534 153" fill="none" xmlns="http://www.w3.org/2000/svg">
<path d="M20.0582 81.204L43.6243 57.6378C44.0021 57.6738 44.3619 57.6918 44.7037 57.6918C51.8635 57.6918 57.6921 51.8632 57.6921 44.7034C57.6921 37.5437 51.8635 31.7151 44.7037 31.7151C37.5439 31.7151 31.7153 37.5437 31.7153 44.7034C31.7153 45.0632 31.7153 45.423 31.7693 45.7828L2.48253 75.0876C0.917447 76.6527 0.0539551 78.7394 0.0539551 80.9521C0.0539551 83.1648 0.917447 85.2516 2.48253 86.8167L3.86771 85.4315L2.60845 86.9606L66.255 150.607C67.8561 152.208 69.9428 153 72.0476 153C74.1524 153 76.2391 152.208 77.8402 150.607C81.0423 147.423 81.0423 142.224 77.8402 139.022L20.0582 81.204Z" fill="white"/>
<path d="M83.9206 22.4152C80.2868 15.1475 74.2783 9.15701 67.0106 5.50516C51.6296 -2.2123 34.9534 -1.79855 21.2815 6.63849C7.95132 14.8776 0 29.1073 0 44.7041C0 49.3274 3.75979 53.0872 8.38307 53.0872C11.7651 53.0872 14.7873 51.0724 16.1005 47.9602C16.5323 46.9348 16.7661 45.8374 16.7661 44.7041C16.7661 34.9179 22.0011 25.7073 30.4381 20.6882C39.2709 15.4173 49.9746 15.4533 59.8328 20.7782C63.5746 22.793 66.6148 25.8512 68.6476 29.593C73.9725 39.4512 74.0085 50.1549 68.7376 58.9877C63.7005 67.4247 54.5079 72.6597 44.7217 72.6597C40.0984 72.6597 36.3386 76.4194 36.3386 81.0427C36.3386 85.666 40.0984 89.4258 44.7577 89.4258C60.3545 89.4258 74.5841 81.4565 82.7873 68.1263C91.2243 54.4544 91.6381 37.7962 83.9206 22.4332V22.4152Z" fill="white"/>
<path d="M115.618 113.585V63.1429H131.611V113.585H115.618ZM131.611 85.9715L124.972 80.7906C126.286 74.8361 128.516 70.2488 131.664 66.9927C134.813 63.7366 139.112 62.1176 144.581 62.1176C147.009 62.1176 149.132 62.4773 150.967 63.2149C152.802 63.9345 154.403 65.0318 155.788 66.489L146.344 78.5239C145.714 77.8403 144.887 77.2826 143.861 76.8689C142.818 76.4551 141.649 76.2393 140.335 76.2393C137.637 76.2393 135.514 77.0488 133.949 78.6858C132.384 80.3049 131.611 82.7514 131.611 86.0075V85.9715Z" fill="white"/>
<path d="M179.552 114.629C174.983 114.629 170.863 113.477 167.194 111.157C163.524 108.836 160.645 105.724 158.523 101.82C156.418 97.9165 155.357 93.4371 155.357 88.3821C155.357 83.3271 156.418 78.8117 158.523 74.8361C160.627 70.8604 163.506 67.7482 167.14 65.4996C170.774 63.2509 174.911 62.1176 179.534 62.1176C182.916 62.1176 185.993 62.7832 188.727 64.0964C191.461 65.4096 193.692 67.2266 195.419 69.5472C197.146 71.8678 198.117 74.5123 198.333 77.4805V99.2837C198.117 102.252 197.182 104.896 195.473 107.217C193.782 109.538 191.569 111.355 188.835 112.668C186.1 113.981 183.006 114.647 179.552 114.647V114.629ZM182.88 100.201C186.262 100.201 188.979 99.0858 191.03 96.8731C193.062 94.6604 194.088 91.7821 194.088 88.2562C194.088 85.9715 193.638 83.9567 192.739 82.1937C191.839 80.4308 190.526 79.0456 188.799 78.0382C187.072 77.0308 185.093 76.5271 182.88 76.5271C180.668 76.5271 178.815 77.0308 177.124 78.0382C175.433 79.0456 174.084 80.4488 173.076 82.2477C172.069 84.0467 171.565 86.0795 171.565 88.3641C171.565 90.6488 172.069 92.6816 173.076 94.4805C174.084 96.2795 175.433 97.6826 177.124 98.69C178.815 99.6974 180.74 100.201 182.88 100.201ZM193.458 113.585V99.9853L195.851 87.6265L193.458 75.4837V63.125H209.127V113.567H193.458V113.585Z" fill="white"/>
<path d="M220.244 113.585V63.1429H236.237V113.585H220.244ZM253.669 113.585V84.8381C253.669 82.2836 252.841 80.1788 251.186 78.5598C249.531 76.9408 247.444 76.1132 244.962 76.1132C243.307 76.1132 241.814 76.473 240.5 77.2106C239.187 77.9302 238.144 78.9556 237.388 80.2688C236.633 81.582 236.255 83.1111 236.255 84.8381L230.139 81.8339C230.139 77.8942 231.02 74.4222 232.783 71.454C234.546 68.4857 236.975 66.1831 240.051 64.546C243.127 62.927 246.599 62.0995 250.485 62.0995C254.154 62.0995 257.447 62.963 260.343 64.69C263.257 66.4169 265.524 68.7556 267.197 71.6878C268.852 74.6381 269.679 77.8222 269.679 81.2942V113.567H253.705L253.669 113.585Z" fill="white"/>
<path d="M301.197 114.629C296.358 114.629 292.076 113.495 288.37 111.211C284.665 108.926 281.786 105.814 279.699 101.874C277.631 97.9344 276.587 93.4371 276.587 88.382C276.587 83.327 277.631 78.8297 279.699 74.89C281.768 70.9503 284.683 67.8381 288.424 65.5535C292.166 63.2688 296.412 62.1355 301.197 62.1355C304.579 62.1355 307.691 62.7831 310.533 64.0603C313.376 65.3376 315.678 67.1365 317.495 69.4572C319.294 71.7778 320.338 74.4582 320.607 77.4984V98.7799C320.338 101.748 319.294 104.429 317.495 106.821C315.696 109.214 313.376 111.121 310.533 112.524C307.691 113.945 304.579 114.647 301.197 114.647V114.629ZM304.003 100.201C306.288 100.201 308.267 99.6974 309.922 98.69C311.577 97.6826 312.872 96.2794 313.807 94.4804C314.743 92.6815 315.211 90.6127 315.211 88.2561C315.211 85.8995 314.743 83.9566 313.807 82.1937C312.872 80.4307 311.577 79.0455 309.922 78.0381C308.267 77.0307 306.324 76.527 304.111 76.527C301.898 76.527 299.956 77.0487 298.301 78.0921C296.645 79.1355 295.314 80.5386 294.307 82.3016C293.299 84.0646 292.796 86.0974 292.796 88.364C292.796 90.6307 293.263 92.6815 294.199 94.4804C295.134 96.2794 296.466 97.6826 298.193 98.69C299.92 99.6974 301.862 100.201 304.003 100.201ZM330.268 113.585H314.599V99.9852L316.992 87.6265L314.293 75.4836V38.2275H330.286V113.567L330.268 113.585Z" fill="white"/>
<path d="M366.265 114.736C360.796 114.736 355.957 113.603 351.729 111.354C347.502 109.106 344.192 105.976 341.763 101.964C339.334 97.9524 338.129 93.3831 338.129 88.2561C338.129 83.1291 339.298 78.7936 341.655 74.818C344.012 70.8423 347.232 67.7122 351.315 65.4275C355.399 63.1429 360.004 62.0095 365.113 62.0095C370.222 62.0095 374.594 63.0889 378.389 65.2296C382.185 67.3704 385.207 70.3566 387.42 74.1524C389.633 77.9661 390.748 82.3196 390.748 87.2307C390.748 88.2021 390.694 89.1915 390.586 90.1809C390.478 91.1884 390.262 92.3037 389.921 93.563L346.53 93.7608V82.7513L383.067 82.5354L376.213 87.2127C376.141 84.3704 375.691 82.0137 374.864 80.1069C374.036 78.2 372.813 76.7249 371.176 75.6995C369.557 74.6561 367.596 74.1344 365.311 74.1344C362.829 74.1344 360.652 74.728 358.817 75.8973C356.982 77.0846 355.561 78.7037 354.553 80.7725C353.546 82.8413 353.042 85.3418 353.042 88.2381C353.042 91.1344 353.582 93.6709 354.643 95.8116C355.723 97.9524 357.234 99.6074 359.213 100.741C361.192 101.874 363.512 102.45 366.211 102.45C368.639 102.45 370.852 102.018 372.849 101.154C374.864 100.291 376.626 98.9958 378.138 97.2688L386.952 105.994C384.47 108.962 381.448 111.175 377.922 112.578C374.396 113.999 370.474 114.701 366.193 114.701L366.265 114.736Z" fill="white"/>
<path d="M414.116 113.585L392.745 63.1431H409.979L424.514 105.076H416.941L431.566 63.1431H448.476L426.997 113.585H414.134H414.116Z" fill="white"/>
<path d="M462.058 56.307C459.63 56.307 457.597 55.4435 455.942 53.7165C454.287 51.9895 453.459 49.9207 453.459 47.4922C453.459 45.0636 454.287 42.9228 455.942 41.2678C457.597 39.6128 459.648 38.7853 462.058 38.7853C464.613 38.7853 466.681 39.6128 468.229 41.2678C469.794 42.9228 470.567 45.0096 470.567 47.4922C470.567 49.9747 469.794 51.9895 468.229 53.7165C466.663 55.4435 464.613 56.307 462.058 56.307ZM454.071 113.603V63.1609H470.045V113.603H454.071Z" fill="white"/>
<path d="M505.431 114.736C500.178 114.736 495.465 113.567 491.309 111.211C487.153 108.854 483.861 105.67 481.451 101.658C479.022 97.6465 477.817 93.1492 477.817 88.1661C477.817 83.183 479.004 78.8296 481.397 74.8899C483.789 70.9502 487.045 67.8201 491.201 65.4994C495.357 63.1788 500.088 62.0275 505.413 62.0275C510.738 62.0275 515.289 63.1608 519.48 65.4455C523.672 67.7301 526.964 70.8603 529.393 74.8359C531.803 78.8116 533.026 83.255 533.026 88.1661C533.026 93.0772 531.821 97.7365 529.393 101.712C526.964 105.688 523.69 108.854 519.534 111.211C515.379 113.567 510.684 114.736 505.413 114.736H505.431ZM505.431 100.201C507.643 100.201 509.622 99.7153 511.349 98.7439C513.076 97.7724 514.407 96.3693 515.343 94.5343C516.278 92.6994 516.746 90.6127 516.746 88.256C516.746 85.8994 516.26 83.9566 515.289 82.1936C514.317 80.4306 512.986 79.0455 511.295 78.038C509.604 77.0306 507.643 76.5269 505.431 76.5269C503.218 76.5269 501.239 77.0306 499.512 78.038C497.785 79.0455 496.436 80.4486 495.465 82.2476C494.493 84.0465 494.007 86.0613 494.007 88.274C494.007 90.6306 494.493 92.7174 495.465 94.5523C496.436 96.3873 497.785 97.7904 499.512 98.7619C501.239 99.7333 503.218 100.219 505.431 100.219V100.201Z" fill="white"/>
</svg>
